<?xml version="1.0" standalone="no"?>
<!DOCTYPE svg PUBLIC "-//W3C//DTD SVG 20010904//EN"
 "http://www.w3.org/TR/2001/REC-SVG-20010904/DTD/svg10.dtd">
<svg version="1.0" xmlns="http://www.w3.org/2000/svg"
 width="512.000000pt" height="512.000000pt" viewBox="0 0 512.000000 512.000000"
 preserveAspectRatio="xMidYMid meet">

<g transform="translate(0.000000,512.000000) scale(0.100000,-0.100000)"
fill="#000000" stroke="none">
<path d="M2437 4535 c-59 -118 -107 -217 -107 -220 0 -3 97 -5 215 -5 118 0
215 3 214 8 0 4 -48 103 -107 220 l-107 212 -108 -215z"/>
<path d="M2941 4687 c5 -17 32 -113 60 -212 28 -99 53 -182 55 -184 4 -4 284
250 284 258 0 4 -78 38 -172 76 -95 38 -187 74 -205 82 l-32 13 10 -33z"/>
<path d="M3443 4297 c-90 -45 -163 -84 -163 -88 0 -7 238 -189 256 -196 9 -3
82 353 73 362 -2 1 -77 -34 -166 -78z"/>
<path d="M1841 4249 c-27 -22 -26 -25 12 -34 24 -6 27 -4 27 18 0 35 -10 39
-39 16z"/>
<path d="M1611 4218 l-55 -42 69 -23 c38 -12 69 -22 70 -20 5 5 -19 127 -24
127 -3 0 -30 -19 -60 -42z"/>
<path d="M2261 4128 l-53 -31 58 -33 c33 -19 62 -34 67 -34 4 0 7 29 7 65 0
45 -4 65 -12 65 -7 0 -37 -15 -67 -32z"/>
<path d="M2500 4140 c-27 -20 -27 -21 13 -38 29 -13 31 -9 19 35 -7 22 -7 22
-32 3z"/>
<path d="M2837 3962 c18 -98 36 -196 40 -220 3 -23 9 -45 13 -47 7 -5 313 220
318 233 1 4 -89 53 -201 109 l-204 101 34 -176z"/>
<path d="M3795 4118 c-22 -64 -66 -210 -63 -213 2 -1 54 16 116 38 l113 40
-63 64 c-72 74 -96 90 -103 71z"/>
<path d="M1368 3998 c2 -46 7 -86 11 -89 3 -4 46 16 94 44 l89 50 -82 33
c-129 52 -117 57 -112 -38z"/>
<path d="M1960 4021 c0 -16 39 -173 44 -178 2 -3 40 26 85 63 44 38 78 70 76
72 -4 4 -185 51 -197 52 -5 0 -8 -4 -8 -9z"/>
<path d="M1057 3902 l-78 -78 118 -36 c65 -20 119 -36 120 -34 2 2 -75 217
-80 222 -2 2 -38 -32 -80 -74z"/>
<path d="M1663 3827 l-86 -83 129 -45 c71 -25 131 -44 133 -42 7 5 -72 253
-81 253 -5 0 -48 -37 -95 -83z"/>
<path d="M3355 3747 c-44 -29 -113 -73 -153 -98 l-73 -46 146 -87 c81 -48 148
-86 149 -84 3 3 26 310 26 346 0 12 -3 22 -7 21 -5 0 -44 -24 -88 -52z"/>
<path d="M3953 3753 c-40 -2 -73 -7 -73 -10 0 -12 94 -173 100 -173 4 0 22 37
39 83 18 45 35 88 38 95 3 7 -2 11 -13 10 -11 -1 -52 -4 -91 -5z"/>
<path d="M750 3625 c0 -8 160 -325 164 -325 2 0 49 61 105 135 56 74 98 135
94 135 -5 0 -82 13 -173 30 -172 31 -190 33 -190 25z"/>
<path d="M4131 3498 c-12 -34 -21 -65 -21 -68 0 -6 120 9 128 16 4 2 -78 114
-83 114 -2 0 -13 -28 -24 -62z"/>
<path d="M3641 3425 c-24 -69 -42 -128 -40 -129 4 -4 247 69 254 76 5 5 -154
178 -163 178 -4 0 -27 -57 -51 -125z"/>
<path d="M1340 3490 c18 -34 172 -275 184 -287 9 -10 32 21 98 132 48 80 84
145 80 145 -4 0 -86 7 -182 15 -96 8 -179 15 -183 15 -4 0 -3 -9 3 -20z"/>
<path d="M561 3348 c-5 -13 -41 -104 -80 -202 -39 -99 -69 -182 -66 -184 6 -6
415 110 415 117 0 6 -90 107 -207 234 -51 56 -53 57 -62 35z"/>
<path d="M4192 3272 c-10 -30 -10 -32 13 -32 33 0 38 14 17 41 l-19 22 -11
-31z"/>
<path d="M1100 3070 c-56 -111 -100 -203 -98 -206 3 -3 407 69 441 79 6 2
-203 291 -232 320 -5 5 -54 -82 -111 -193z"/>
<path d="M3885 3159 c-44 -11 -86 -21 -93 -24 -9 -3 10 -32 55 -85 37 -44 70
-80 73 -80 3 0 17 47 32 105 14 58 23 105 19 104 -3 -1 -42 -10 -86 -20z"/>
<path d="M4011 2871 c-18 -35 -30 -65 -28 -68 3 -2 32 -3 65 -1 l60 3 -33 65
-32 64 -32 -63z"/>
<path d="M2270 2560 l0 -350 60 0 60 0 0 240 c0 132 3 240 8 240 4 0 82 -108
172 -240 l165 -239 58 -1 57 0 0 350 0 350 -60 0 -60 0 0 -240 c0 -132 -4
-240 -8 -240 -4 0 -82 108 -173 240 l-164 239 -57 1 -58 0 0 -350z"/>
<path d="M4287 2663 c3 -120 6 -219 7 -220 1 -1 100 48 220 110 l218 112 -222
107 c-122 60 -224 108 -226 108 -2 0 -1 -98 3 -217z"/>
<path d="M598 2679 c-120 -60 -218 -111 -218 -114 0 -3 99 -54 220 -115 l220
-110 0 225 c0 124 -1 225 -2 224 -2 0 -101 -49 -220 -110z"/>
<path d="M4051 2637 c-15 -38 -15 -37 19 -37 35 0 36 6 10 40 l-19 25 -10 -28z"/>
<path d="M1070 2553 c0 -5 9 -19 19 -32 l18 -24 11 32 c11 30 10 31 -19 31
-16 0 -29 -3 -29 -7z"/>
<path d="M1091 2298 c17 -35 33 -65 35 -67 3 -3 64 114 64 124 0 3 -29 5 -65
5 l-65 0 31 -62z"/>
<path d="M3948 2300 c-113 -21 -211 -39 -218 -42 -6 -2 44 -77 110 -167 l122
-164 104 204 c57 112 104 205 104 206 0 4 9 6 -222 -37z"/>
<path d="M4510 2219 c-91 -27 -182 -54 -203 -60 l-37 -10 132 -144 c73 -79
136 -141 140 -137 3 4 34 79 68 167 91 233 91 235 77 234 -7 0 -86 -22 -177
-50z"/>
<path d="M1218 2092 c-15 -59 -26 -107 -25 -108 8 -4 187 41 187 47 0 6 -98
128 -129 161 -4 4 -19 -40 -33 -100z"/>
<path d="M3608 1974 c-110 -177 -150 -245 -147 -248 2 -2 67 -9 144 -15 77 -6
161 -14 188 -17 l48 -6 -97 154 c-53 84 -100 157 -104 162 -5 4 -19 -9 -32
-30z"/>
<path d="M4100 1800 c-52 -72 -96 -134 -98 -139 -2 -6 358 -73 365 -67 2 2
-167 336 -170 336 -1 0 -45 -59 -97 -130z"/>
<path d="M873 1862 l-21 -7 22 -28 22 -28 11 36 c12 37 9 39 -34 27z"/>
<path d="M1500 1850 c-30 -11 -88 -29 -129 -41 l-73 -22 88 -88 c49 -49 91
-85 95 -81 3 4 23 57 44 117 21 61 40 116 42 123 6 15 0 15 -67 -8z"/>
<path d="M1740 1718 c0 -7 -7 -91 -15 -187 -8 -96 -14 -175 -12 -176 3 -3 297
181 309 193 6 6 -191 135 -274 179 -5 2 -8 -2 -8 -9z"/>
<path d="M910 1668 c-19 -5 -37 -11 -39 -13 -2 -2 16 -27 40 -54 23 -28 45
-49 48 -45 3 3 13 32 22 65 l16 59 -26 -1 c-14 0 -42 -5 -61 -11z"/>
<path d="M1122 1530 c-16 -43 -62 -171 -62 -173 0 -2 41 2 90 7 50 5 90 12 90
15 0 3 -25 44 -55 91 -51 80 -54 83 -63 60z"/>
<path d="M3324 1533 c3 -10 19 -67 37 -128 17 -60 33 -112 35 -114 2 -2 44 34
94 79 50 46 87 87 83 91 -7 6 -238 89 -249 89 -3 0 -3 -8 0 -17z"/>
<path d="M2111 1349 l-163 -121 202 -105 c111 -57 204 -102 206 -101 2 3 -72
417 -79 441 -1 4 -76 -47 -166 -114z"/>
<path d="M3900 1464 c0 -13 75 -215 81 -217 2 -1 37 33 78 75 48 51 69 79 60
82 -8 3 -54 17 -104 32 -49 15 -96 29 -102 31 -7 3 -13 1 -13 -3z"/>
<path d="M3071 1299 c-50 -41 -77 -71 -69 -73 71 -24 198 -51 198 -42 -1 16
-38 177 -42 181 -2 2 -41 -28 -87 -66z"/>
<path d="M3652 1271 c-46 -27 -85 -51 -88 -54 -3 -3 30 -18 73 -35 43 -17 86
-33 96 -37 15 -6 17 -1 16 46 0 30 -3 71 -7 91 l-7 37 -83 -48z"/>
<path d="M1271 1176 l-103 -43 77 -69 c42 -38 80 -70 84 -72 5 -1 11 10 14 25
4 15 17 67 31 116 16 57 20 87 13 86 -7 0 -59 -20 -116 -43z"/>
<path d="M2820 1110 l0 -70 65 32 c36 18 65 35 65 38 0 3 -29 20 -65 38 l-65
32 0 -70z"/>
<path d="M1558 942 c-15 -103 -26 -188 -25 -188 1 -1 67 34 147 78 80 44 155
85 167 91 20 11 14 17 -94 92 -64 44 -128 88 -143 97 l-26 17 -26 -187z"/>
<path d="M2620 1102 c0 -9 4 -23 9 -30 7 -12 12 -12 30 -1 28 18 27 25 -9 38
-26 8 -30 8 -30 -7z"/>
<path d="M3423 1066 c3 -7 9 -34 12 -60 4 -25 11 -46 15 -46 5 0 32 19 61 41
l52 42 -59 18 c-71 22 -88 23 -81 5z"/>
<path d="M3240 985 c0 -32 11 -37 39 -16 l24 18 -32 11 c-29 10 -31 9 -31 -13z"/>
<path d="M2571 868 c-102 -4 -186 -10 -189 -12 -2 -2 49 -99 113 -216 65 -116
119 -209 122 -206 5 5 175 376 194 424 8 20 6 22 -24 20 -17 0 -115 -5 -216
-10z"/>
<path d="M1946 731 l-140 -140 30 -11 c145 -56 384 -135 384 -126 -1 6 -31
102 -68 214 l-67 203 -139 -140z"/>
</g>
</svg>
