<?xml version="1.0" standalone="no"?>
<!DOCTYPE svg PUBLIC "-//W3C//DTD SVG 20010904//EN"
 "http://www.w3.org/TR/2001/REC-SVG-20010904/DTD/svg10.dtd">
<svg version="1.0" xmlns="http://www.w3.org/2000/svg"
 width="2146.000000pt" height="506.000000pt" viewBox="0 0 2146.000000 506.000000"
 preserveAspectRatio="xMidYMid meet">

<g transform="translate(0.000000,506.000000) scale(0.100000,-0.100000)"
fill="#000000" stroke="none">
<path d="M2406 4481 c-59 -117 -105 -215 -103 -217 2 -3 99 -3 214 -2 l211 3
-108 215 -107 215 -107 -214z"/>
<path d="M2903 4644 c3 -10 29 -102 58 -204 29 -102 55 -188 58 -192 6 -6 36
20 234 198 l58 52 -193 77 c-106 42 -199 80 -207 83 -9 3 -12 -1 -8 -14z"/>
<path d="M3403 4247 c-90 -45 -163 -84 -163 -88 0 -8 260 -203 263 -198 5 6
68 361 65 364 -2 2 -76 -34 -165 -78z"/>
<path d="M1821 4199 c-27 -22 -26 -25 12 -34 22 -6 27 -4 27 11 0 36 -13 43
-39 23z"/>
<path d="M1590 4168 l-55 -42 55 -18 c88 -27 88 -27 77 42 -5 33 -13 60 -16
60 -3 0 -31 -19 -61 -42z"/>
<path d="M2241 4083 l-64 -36 64 -33 64 -32 3 34 c2 19 2 50 0 69 l-3 34 -64
-36z"/>
<path d="M2470 4090 c-28 -21 -26 -26 13 -35 28 -7 33 2 19 37 -7 16 -9 16
-32 -2z"/>
<path d="M2773 4073 c3 -10 23 -111 43 -225 l38 -207 36 27 c170 126 289 216
287 218 -1 1 -93 47 -205 103 -150 75 -202 97 -199 84z"/>
<path d="M3721 3974 c-18 -58 -31 -108 -28 -110 4 -4 206 64 217 73 4 4 -141
142 -151 143 -3 0 -20 -48 -38 -106z"/>
<path d="M1351 3983 c0 -27 4 -66 7 -89 l7 -41 88 52 89 52 -91 37 c-50 20
-93 36 -96 36 -3 0 -5 -21 -4 -47z"/>
<path d="M1940 3965 c0 -14 25 -128 36 -163 2 -8 33 12 84 55 44 37 80 70 80
73 0 6 -174 51 -192 50 -5 0 -8 -7 -8 -15z"/>
<path d="M1044 3855 c-37 -42 -65 -77 -63 -78 12 -9 213 -67 216 -63 7 7 -68
216 -77 216 -5 0 -39 -34 -76 -75z"/>
<path d="M1650 3785 c-46 -46 -82 -86 -79 -88 9 -8 243 -86 247 -83 5 5 -72
256 -78 256 -3 0 -43 -38 -90 -85z"/>
<path d="M3252 3662 c-83 -53 -152 -99 -152 -102 1 -7 281 -173 284 -168 5 5
28 359 24 363 -2 2 -72 -40 -156 -93z"/>
<path d="M3863 3701 l-32 -6 48 -83 c27 -46 51 -85 53 -88 3 -2 19 33 37 78
18 46 35 89 38 96 6 13 -82 15 -144 3z"/>
<path d="M740 3585 c0 -8 160 -325 164 -325 7 0 199 260 195 264 -4 3 -340 66
-353 66 -3 0 -6 -2 -6 -5z"/>
<path d="M4081 3453 c-11 -37 -19 -68 -18 -69 2 -2 121 18 125 22 4 3 -78 114
-84 114 -2 0 -12 -30 -23 -67z"/>
<path d="M3598 3383 c-24 -70 -44 -129 -43 -130 1 -2 258 76 262 80 1 2 -37
43 -86 91 l-88 88 -45 -129z"/>
<path d="M1346 3413 c20 -32 66 -104 102 -161 36 -56 66 -101 67 -100 23 25
171 288 162 288 -17 0 -240 18 -310 25 l-58 6 37 -58z"/>
<path d="M16017 3419 c-182 -21 -371 -121 -482 -256 -134 -163 -205 -381 -205
-633 0 -436 203 -749 555 -856 81 -25 106 -27 245 -28 133 -1 166 2 234 22
201 58 349 176 430 344 60 124 76 209 76 403 l0 155 -350 0 -350 0 0 -120 0
-120 200 0 200 0 0 -38 c0 -90 -56 -210 -128 -273 -20 -18 -66 -46 -102 -63
-57 -27 -78 -31 -171 -34 -118 -5 -187 10 -272 56 -103 56 -193 186 -233 337
-25 96 -26 342 -1 435 60 225 202 364 403 393 195 28 386 -71 455 -238 l23
-55 158 0 158 0 -6 28 c-31 140 -79 228 -184 332 -126 126 -255 186 -450 210
-93 11 -104 11 -203 -1z"/>
<path d="M5400 2530 l0 -870 155 0 155 0 0 596 c0 391 3 595 10 592 5 -1 194
-268 418 -593 l409 -590 137 -3 136 -3 0 871 0 870 -150 0 -150 0 -2 -592 c-2
-387 -6 -593 -13 -593 -5 0 -193 266 -417 590 l-408 590 -140 3 -140 3 0 -871z"/>
<path d="M7180 2530 l0 -870 565 0 565 0 0 130 0 130 -410 0 -410 0 0 240 0
240 378 2 377 3 3 128 3 127 -381 0 -380 0 0 240 0 240 405 0 405 0 0 130 0
130 -560 0 -560 0 0 -870z"/>
<path d="M8552 3378 c16 -24 509 -815 521 -834 4 -6 -114 -202 -261 -435 -148
-233 -271 -430 -276 -436 -6 -10 31 -13 172 -13 l179 0 194 317 c107 174 199
318 204 319 6 2 98 -141 205 -316 l194 -320 179 0 179 0 -19 33 c-11 17 -133
213 -272 435 l-252 403 19 32 c10 18 128 210 262 427 133 217 245 398 247 403
2 4 -76 7 -174 7 l-178 -1 -190 -317 c-105 -174 -195 -317 -200 -316 -6 0 -95
143 -200 317 l-190 317 -179 0 -178 0 14 -22z"/>
<path d="M10890 2530 l0 -870 155 0 155 0 0 870 0 870 -155 0 -155 0 0 -870z"/>
<path d="M11540 2530 l0 -870 150 0 150 0 0 600 c0 480 3 600 13 600 7 0 110
-243 252 -595 l239 -595 112 0 112 0 46 113 c25 61 133 328 240 592 106 263
198 481 205 483 8 3 11 -150 11 -597 l0 -601 150 0 150 0 0 870 0 870 -192 0
-193 0 -257 -628 c-154 -378 -262 -628 -271 -630 -10 -2 -86 174 -272 628
l-258 630 -194 0 -193 0 0 -870z"/>
<path d="M14211 3378 c-26 -69 -601 -1708 -601 -1712 0 -3 74 -6 164 -6 l164
0 72 215 72 215 332 0 331 0 71 -212 70 -213 167 -3 167 -2 -38 107 c-21 60
-160 451 -307 871 l-269 762 -193 0 c-191 0 -194 0 -202 -22z m330 -683 c65
-193 118 -351 119 -352 0 -2 -110 -3 -245 -3 -135 0 -245 3 -245 7 0 28 234
703 242 701 6 -2 64 -161 129 -353z"/>
<path d="M17190 2530 l0 -870 565 0 565 0 0 130 0 130 -410 0 -410 0 0 240 0
240 378 2 377 3 3 128 3 127 -381 0 -380 0 0 240 0 240 405 0 405 0 0 130 0
130 -560 0 -560 0 0 -870z"/>
<path d="M19730 3374 c-19 -48 -593 -1679 -598 -1696 -4 -17 8 -18 160 -18
l164 0 73 215 74 215 331 0 331 0 71 -212 70 -213 167 -3 167 -2 -33 92 c-19
51 -157 443 -308 871 l-274 777 -193 0 -192 0 -10 -26z m331 -682 l117 -352
-244 0 c-134 0 -244 3 -244 7 0 29 234 703 243 700 6 -2 64 -162 128 -355z"/>
<path d="M20980 2530 l0 -870 155 0 155 0 0 870 0 870 -155 0 -155 0 0 -870z"/>
<path d="M483 3128 c-45 -112 -80 -204 -79 -205 4 -4 401 110 409 118 7 6
-118 152 -227 267 l-22 23 -81 -203z"/>
<path d="M4142 3231 c-9 -27 -9 -31 6 -31 9 0 24 5 32 10 13 8 12 12 -6 31
l-21 21 -11 -31z"/>
<path d="M1142 3138 c-84 -157 -154 -300 -148 -305 5 -6 390 63 419 75 16 7 3
29 -98 162 -65 85 -119 156 -120 158 -2 2 -25 -39 -53 -90z"/>
<path d="M3825 3118 c-44 -11 -82 -21 -84 -23 -2 -2 27 -40 64 -85 38 -44 69
-79 71 -78 1 2 12 41 24 88 11 47 23 93 26 103 6 21 2 20 -101 -5z"/>
<path d="M3962 2835 l-32 -65 65 0 65 0 -31 63 c-17 34 -32 63 -33 64 -1 1
-16 -27 -34 -62z"/>
<path d="M2250 2531 l0 -351 60 0 60 0 2 241 3 241 165 -241 165 -240 53 -1
52 0 0 350 0 351 -57 -3 -58 -3 -5 -239 -5 -239 -165 239 -165 239 -53 3 -52
3 0 -350z"/>
<path d="M4233 2729 c4 -67 7 -166 7 -221 l0 -98 63 31 c34 17 131 67 216 112
l154 80 -49 25 c-27 14 -127 63 -223 109 l-174 84 6 -122z"/>
<path d="M582 2642 l-212 -107 215 -108 c118 -59 217 -107 220 -107 3 0 5 97
5 215 0 118 -3 215 -7 214 -5 0 -104 -48 -221 -107z"/>
<path d="M4002 2601 c-11 -30 -10 -31 19 -31 34 0 35 6 10 39 l-18 24 -11 -32z"/>
<path d="M1060 2521 c0 -5 8 -19 18 -30 l17 -22 12 30 c11 30 10 31 -18 31
-16 0 -29 -4 -29 -9z"/>
<path d="M1080 2270 c17 -33 32 -60 35 -60 3 0 18 27 35 60 l30 60 -65 0 -65
0 30 -60z"/>
<path d="M3888 2271 c-109 -21 -200 -40 -204 -43 -5 -5 182 -264 221 -307 11
-11 30 20 112 180 54 107 100 197 101 202 5 11 -17 8 -230 -32z"/>
<path d="M4433 2187 c-112 -34 -203 -64 -203 -67 0 -14 254 -280 260 -273 4 4
23 51 43 103 19 52 53 141 75 198 22 56 37 102 34 101 -4 -1 -98 -29 -209 -62z"/>
<path d="M1220 2129 c-7 -24 -19 -70 -28 -102 -8 -31 -13 -59 -11 -61 4 -4
180 32 186 38 2 2 -108 139 -132 165 -2 1 -9 -17 -15 -40z"/>
<path d="M3567 1953 c-91 -146 -149 -244 -146 -247 5 -4 363 -35 366 -32 2 2
-182 303 -193 314 -1 2 -13 -13 -27 -35z"/>
<path d="M4045 1769 c-53 -72 -95 -132 -93 -133 2 -1 77 -15 168 -30 91 -15
173 -30 183 -33 13 -3 -4 38 -65 161 -45 91 -86 166 -89 166 -4 0 -51 -59
-104 -131z"/>
<path d="M873 1842 c-28 -4 -28 -10 -4 -41 l19 -24 7 32 c8 37 8 38 -22 33z"/>
<path d="M1421 1809 c-67 -21 -125 -40 -127 -42 -2 -2 32 -43 77 -91 45 -48
86 -83 90 -79 9 9 92 244 87 248 -2 1 -59 -15 -127 -36z"/>
<path d="M1720 1698 c0 -7 -7 -89 -15 -182 -8 -94 -13 -172 -11 -174 4 -3 231
137 299 183 15 11 3 21 -105 86 -172 104 -168 102 -168 87z"/>
<path d="M898 1648 c-21 -6 -38 -13 -38 -16 1 -4 20 -29 44 -56 l44 -49 16 55
c9 31 16 61 16 67 0 13 -31 13 -82 -1z"/>
<path d="M1085 1447 c-15 -45 -30 -88 -33 -96 -4 -11 7 -12 59 -7 35 4 76 9
91 12 l27 5 -51 80 c-27 43 -53 81 -57 83 -4 3 -20 -32 -36 -77z"/>
<path d="M3284 1515 c3 -9 20 -64 37 -123 17 -59 33 -111 36 -116 3 -4 45 32
94 80 l88 88 -121 43 c-137 48 -143 49 -134 28z"/>
<path d="M2086 1333 c-86 -63 -154 -119 -149 -123 16 -15 384 -202 389 -198 4
5 -72 427 -78 434 -3 2 -75 -49 -162 -113z"/>
<path d="M3886 1353 c19 -53 38 -102 42 -110 6 -9 29 8 82 62 41 41 72 76 69
78 -4 5 -213 67 -222 67 -4 0 10 -43 29 -97z"/>
<path d="M3037 1287 c-42 -34 -76 -65 -76 -68 -1 -8 191 -60 197 -54 6 6 -30
175 -38 180 -4 2 -41 -24 -83 -58z"/>
<path d="M3606 1255 l-90 -54 45 -19 c85 -36 139 -55 145 -50 3 3 1 44 -3 91
l-8 85 -89 -53z"/>
<path d="M1275 1168 c-55 -22 -103 -43 -108 -47 -4 -4 27 -38 68 -75 42 -38
78 -66 81 -63 7 6 66 219 62 222 -2 2 -48 -15 -103 -37z"/>
<path d="M2790 1095 l0 -65 63 31 c34 17 64 33 66 35 3 3 -114 64 -124 64 -3
0 -5 -29 -5 -65z"/>
<path d="M1551 1018 c-7 -51 -18 -135 -25 -185 l-13 -93 51 29 c28 16 98 54
156 86 58 31 109 60 113 65 7 6 -222 173 -257 186 -9 3 -16 -21 -25 -88z"/>
<path d="M2590 1086 c0 -8 3 -21 6 -30 5 -14 9 -13 31 1 24 16 24 17 7 30 -23
17 -44 17 -44 -1z"/>
<path d="M3385 1048 c3 -13 9 -42 13 -66 l7 -43 59 45 c37 29 53 48 45 51 -27
9 -114 35 -122 35 -4 0 -5 -10 -2 -22z"/>
<path d="M3200 975 c0 -33 14 -38 41 -17 l22 19 -31 11 c-30 10 -32 10 -32
-13z"/>
<path d="M2546 858 c-104 -4 -191 -10 -193 -11 -2 -2 50 -100 114 -217 l118
-212 17 38 c9 22 55 123 102 227 l85 187 -27 -2 c-15 0 -112 -5 -216 -10z"/>
<path d="M1916 717 l-139 -133 205 -72 c113 -40 207 -72 210 -72 3 0 -25 92
-61 205 -36 113 -68 205 -71 205 -3 -1 -68 -60 -144 -133z"/>
</g>
</svg>
